<svg width="32" height="32" viewBox="0 0 32 32" fill="none" xmlns="http://www.w3.org/2000/svg">
<g clip-path="url(#clip0_2261_6145)">
<path d="M1.14258 26.5161L5.09594 29.8107C5.67741 30.2952 6.41035 30.5605 7.16726 30.5605H17.5897C18.3343 30.5605 18.9379 29.9569 18.9379 29.2124C18.9379 27.7233 17.7307 26.5161 16.2416 26.5161H8.99563" stroke="#626262" stroke-width="1.5" stroke-linecap="round" stroke-linejoin="round"/>
<path d="M5.99585 24.8984L7.20916 26.1117C7.87925 26.7818 8.96569 26.7818 9.63579 26.1117C10.3059 25.4416 10.3059 24.3552 9.63579 23.6851L7.75237 21.8017C7.1456 21.1949 6.32263 20.854 5.46453 20.854H1.14258" stroke="#626262" stroke-width="1.5" stroke-linecap="round" stroke-linejoin="round"/>
<path d="M31 5.34302L27.0466 2.04846C26.4652 1.56394 25.7322 1.29863 24.9753 1.29863H14.5529C13.8082 1.29863 13.2047 1.90222 13.2047 2.64671C13.2047 4.13585 14.4118 5.34302 15.901 5.34302H23.1469" stroke="#626262" stroke-width="1.5" stroke-linecap="round" stroke-linejoin="round"/>
<path d="M26.1467 6.96074L24.9334 5.74744C24.2633 5.07737 23.1769 5.07737 22.5068 5.74744C21.8367 6.41751 21.8367 7.50395 22.5068 8.17406L24.3902 10.0575C24.997 10.6642 25.8199 11.0051 26.6781 11.0051H31" stroke="#626262" stroke-width="1.5" stroke-linecap="round" stroke-linejoin="round"/>
<path d="M11.5659 15.094V17.358C11.5659 19.2257 11.5659 20.1595 12.1461 20.7398C12.7264 21.32 13.6602 21.32 15.5279 21.32H16.6599C18.5276 21.32 19.4614 21.32 20.0417 20.7398C20.6219 20.1595 20.6219 19.2257 20.6219 17.358V15.094" stroke="#626262" stroke-width="1.5" stroke-linecap="round" stroke-linejoin="round"/>
<path d="M11 13.9621C11 13.5389 11 13.3273 11.1137 13.1697C11.1883 13.0664 11.2954 12.9807 11.4245 12.9211C11.6215 12.8301 11.886 12.8301 12.415 12.8301H19.773C20.302 12.8301 20.5665 12.8301 20.7635 12.9211C20.8925 12.9807 20.9997 13.0664 21.0742 13.1697C21.188 13.3273 21.188 13.5389 21.188 13.9621C21.188 14.3853 21.188 14.5968 21.0742 14.7545C20.9997 14.8577 20.8925 14.9435 20.7635 15.0031C20.5665 15.0941 20.302 15.0941 19.773 15.0941H12.415C11.886 15.0941 11.6215 15.0941 11.4245 15.0031C11.2954 14.9435 11.1883 14.8577 11.1137 14.7545C11 14.5968 11 14.3853 11 13.9621Z" stroke="#626262" stroke-width="1.5" stroke-linejoin="round"/>
<path d="M12.698 11.0107C12.698 10.4525 13.1505 10 13.7087 10H13.9109C15.1166 10 16.094 10.9774 16.094 12.1831V12.83H14.5173C13.5125 12.83 12.698 12.0155 12.698 11.0107Z" stroke="#626262" stroke-width="1.5" stroke-linejoin="round"/>
<path d="M19.49 11.0107C19.49 10.4525 19.0375 10 18.4793 10H18.2771C17.0714 10 16.094 10.9774 16.094 12.1831V12.83H17.6707C18.6755 12.83 19.49 12.0155 19.49 11.0107Z" stroke="#626262" stroke-width="1.5" stroke-linejoin="round"/>
<path d="M16.094 15.094V21.32" stroke="#626262" stroke-width="1.5" stroke-linecap="round" stroke-linejoin="round"/>
</g>
<defs>
<clipPath id="clip0_2261_6145">
<rect width="32" height="32" fill="white"/>
</clipPath>
</defs>
</svg>
