<svg width="40" height="40" viewBox="0 0 40 40" fill="none" xmlns="http://www.w3.org/2000/svg">
<path d="M6.66675 18.3333V24.9999C6.66675 30.4996 6.66675 33.2494 8.3753 34.9581C10.0838 36.6666 12.8337 36.6666 18.3334 36.6666H21.6667C27.1664 36.6666 29.9162 36.6666 31.6249 34.9581C33.3334 33.2494 33.3334 30.4996 33.3334 24.9999V18.3333" fill="#0D9488"/>
<path d="M5 15.0001C5 13.7539 5 13.1308 5.33493 12.6667C5.55435 12.3627 5.86995 12.1102 6.25 11.9347C6.83013 11.6667 7.60897 11.6667 9.16667 11.6667H30.8333C32.391 11.6667 33.1698 11.6667 33.75 11.9347C34.13 12.1102 34.4457 12.3627 34.665 12.6667C35 13.1308 35 13.7539 35 15.0001C35 16.2462 35 16.8692 34.665 17.3334C34.4457 17.6374 34.13 17.8899 33.75 18.0654C33.1698 18.3334 32.391 18.3334 30.8333 18.3334H9.16667C7.60897 18.3334 6.83013 18.3334 6.25 18.0654C5.86995 17.8899 5.55435 17.6374 5.33493 17.3334C5 16.8692 5 16.2462 5 15.0001Z" stroke="#0D9488" stroke-width="1.5" stroke-linejoin="round"/>
<path d="M10 6.30944C10 4.66574 11.3325 3.33325 12.9762 3.33325H13.5714C17.1218 3.33325 20 6.21142 20 9.76182V11.6666H15.3571C12.3985 11.6666 10 9.2681 10 6.30944Z" fill="#989F42" stroke="#0D9488" stroke-width="1.5" stroke-linejoin="round"/>
<path d="M30 6.30944C30 4.66574 28.6675 3.33325 27.0238 3.33325H26.4285C22.8782 3.33325 20 6.21142 20 9.76182V11.6666H24.6428C27.6015 11.6666 30 9.2681 30 6.30944Z" fill="#989F42" stroke="#0D9488" stroke-width="1.5" stroke-linejoin="round"/>
<path d="M20 18.3333V36.6666" stroke="#F1F1F1" stroke-width="1.5" stroke-linecap="round" stroke-linejoin="round"/>
</svg>
