<svg width="24" height="24" viewBox="0 0 24 24" fill="none" xmlns="http://www.w3.org/2000/svg">
<g clip-path="url(#clip0_2261_6109)">
<path d="M0.856934 18.8562L5.04619 22.3473C5.66235 22.8608 6.43903 23.1419 7.24111 23.1419H18.2854C19.0745 23.1419 19.7141 22.5023 19.7141 21.7134C19.7141 20.1354 18.4349 18.8562 16.8569 18.8562H9.17858" stroke="#0D9488" stroke-width="1.5" stroke-linecap="round" stroke-linejoin="round"/>
<path d="M5.99979 17.1419L7.28551 18.4276C7.99558 19.1377 9.14684 19.1377 9.85694 18.4276C10.567 17.7176 10.567 16.5663 9.85694 15.8562L7.86113 13.8604C7.21815 13.2174 6.34608 12.8562 5.43677 12.8562H0.856934" stroke="#0D9488" stroke-width="1.5" stroke-linecap="round" stroke-linejoin="round"/>
<path d="M12.4502 6.1499V8.5499C12.4502 10.5298 12.4502 11.5197 13.0653 12.1348C13.6803 12.7499 14.6703 12.7499 16.6502 12.7499H17.8502C19.8301 12.7499 20.82 12.7499 21.4351 12.1348C22.0502 11.5197 22.0502 10.5298 22.0502 8.5499V6.1499" stroke="#0D9488" stroke-width="1.5" stroke-linecap="round" stroke-linejoin="round"/>
<path d="M11.8501 4.95C11.8501 4.50139 11.8501 4.27708 11.9707 4.11C12.0497 4.00055 12.1633 3.90965 12.3001 3.84646C12.5089 3.75 12.7893 3.75 13.3501 3.75H21.1501C21.7109 3.75 21.9912 3.75 22.2001 3.84646C22.3369 3.90965 22.4505 4.00055 22.5295 4.11C22.6501 4.27708 22.6501 4.50139 22.6501 4.95C22.6501 5.39861 22.6501 5.6229 22.5295 5.79C22.4505 5.89944 22.3369 5.99034 22.2001 6.05352C21.9912 6.15 21.7109 6.15 21.1501 6.15H13.3501C12.7893 6.15 12.5089 6.15 12.3001 6.05352C12.1633 5.99034 12.0497 5.89944 11.9707 5.79C11.8501 5.6229 11.8501 5.39861 11.8501 4.95Z" stroke="#0D9488" stroke-width="1.5" stroke-linejoin="round"/>
<path d="M13.6501 1.82143C13.6501 1.22969 14.1298 0.75 14.7216 0.75H14.9359C16.214 0.75 17.2501 1.78614 17.2501 3.06428V3.75H15.5787C14.5136 3.75 13.6501 2.88655 13.6501 1.82143Z" stroke="#0D9488" stroke-width="1.5" stroke-linejoin="round"/>
<path d="M20.85 1.82143C20.85 1.22969 20.3703 0.75 19.7786 0.75H19.5643C18.2861 0.75 17.25 1.78614 17.25 3.06428V3.75H18.9214C19.9865 3.75 20.85 2.88655 20.85 1.82143Z" stroke="#0D9488" stroke-width="1.5" stroke-linejoin="round"/>
<path d="M17.25 6.1499V12.7499" stroke="#0D9488" stroke-width="1.5" stroke-linecap="round" stroke-linejoin="round"/>
</g>
<defs>
<clipPath id="clip0_2261_6109">
<rect width="24" height="24" fill="white"/>
</clipPath>
</defs>
</svg>
