<svg width="81" height="80" viewBox="0 0 81 80" fill="none" xmlns="http://www.w3.org/2000/svg">
<rect x="1" y="0.5" width="79" height="79" rx="5.5" fill="#F9F9F9" stroke="#F1F1F1"/>
<rect x="32.4121" y="58.9556" width="37" height="4" rx="2" fill="#D9D9D9"/>
<rect x="32.4121" y="66.9556" width="29" height="4" rx="2" fill="#D9D9D9"/>
<g clip-path="url(#clip0_2169_3602)">
<rect x="11.5" y="55.9556" width="16.4778" height="16.4778" rx="4.11946" fill="#C9D377"/>
<path d="M20.019 60.0806L20.0076 68.8306" stroke="white" stroke-width="1.2" stroke-linecap="round" stroke-linejoin="round"/>
<path d="M15.625 64.4556H24.375" stroke="white" stroke-width="1.2" stroke-linecap="round" stroke-linejoin="round"/>
</g>
<rect x="32.4121" y="10" width="37" height="4" rx="2" fill="#D9D9D9"/>
<rect x="32.4121" y="18" width="29" height="4" rx="2" fill="#D9D9D9"/>
<g clip-path="url(#clip1_2169_3602)">
<rect x="11.5" y="7" width="16.4778" height="16.4778" rx="4.11946" fill="#C9D377"/>
<path d="M20.019 11.125L20.0076 19.875" stroke="white" stroke-width="1.2" stroke-linecap="round" stroke-linejoin="round"/>
<path d="M15.625 15.5H24.375" stroke="white" stroke-width="1.2" stroke-linecap="round" stroke-linejoin="round"/>
</g>
<rect x="32.4121" y="34.4778" width="37" height="4" rx="2" fill="#D9D9D9"/>
<rect x="32.4121" y="42.4778" width="29" height="4" rx="2" fill="#D9D9D9"/>
<g clip-path="url(#clip2_2169_3602)">
<rect x="11.5" y="31.4778" width="16.4778" height="16.4778" rx="4.11946" fill="#C9D377"/>
<path d="M20.019 35.6028L20.0076 44.3528" stroke="white" stroke-width="1.2" stroke-linecap="round" stroke-linejoin="round"/>
<path d="M15.625 39.9778H24.375" stroke="white" stroke-width="1.2" stroke-linecap="round" stroke-linejoin="round"/>
</g>
<defs>
<clipPath id="clip0_2169_3602">
<rect x="11.5" y="55.9556" width="16.4778" height="16.4778" rx="4.11946" fill="white"/>
</clipPath>
<clipPath id="clip1_2169_3602">
<rect x="11.5" y="7" width="16.4778" height="16.4778" rx="4.11946" fill="white"/>
</clipPath>
<clipPath id="clip2_2169_3602">
<rect x="11.5" y="31.4778" width="16.4778" height="16.4778" rx="4.11946" fill="white"/>
</clipPath>
</defs>
</svg>
