<svg width="82" height="50" viewBox="0 0 82 50" fill="none" xmlns="http://www.w3.org/2000/svg">
<path d="M62.2539 49.6799C72.7269 49.6799 81.2539 41.2112 81.2539 30.68C81.2539 22.7856 76.2851 15.6291 68.8869 12.8791C68.2072 12.6291 67.8205 11.8635 68.1447 11.215C69.0236 9.44552 70.3635 7.71893 72.1213 6.07053C73.3401 4.92994 73.5861 3.19555 72.7385 1.75805C71.8791 0.30106 70.2151 -0.347443 68.5862 0.183857C57.5552 3.76194 44.3202 13.4178 43.3202 28.8477C42.6093 39.8047 51.0116 49.6796 62.2582 49.6796L62.2539 49.6799ZM45.7419 29.004C46.6638 14.7891 59.0269 5.84013 69.3319 2.49615C69.9569 2.29303 70.4178 2.62115 70.6366 2.99224C70.7382 3.16412 71.0194 3.76176 70.453 4.29303C68.4803 6.13682 66.9686 8.10161 65.9608 10.1289C64.9803 12.0977 66.0194 14.4101 68.035 15.1601C74.4842 17.5585 78.82 23.7967 78.82 30.68C78.82 39.8519 71.402 47.2459 62.254 47.2459C52.4571 47.2459 45.121 38.6015 45.746 29.004L45.7419 29.004ZM18.9799 49.6799C29.4529 49.6799 37.9759 41.2112 37.9759 30.68C37.9759 22.7856 33.0071 15.6291 25.6089 12.8791C24.9253 12.6252 24.5464 11.8596 24.8667 11.215C25.7495 9.44552 27.0855 7.71502 28.8433 6.07053C30.0621 4.92994 30.3081 3.19555 29.4605 1.75805C28.605 0.308857 26.9488 -0.347443 25.3082 0.183857C14.2772 3.76194 1.04221 13.4178 0.0422058 28.8477C-0.668732 39.7777 7.7099 49.6799 18.9799 49.6799ZM2.4679 29.004C3.38979 14.7891 15.7529 5.84013 26.0579 2.49615C26.6829 2.29303 27.1438 2.62115 27.3626 2.99224C27.4642 3.16412 27.7454 3.76176 27.179 4.29303C25.2102 6.13682 23.6985 8.10161 22.6868 10.1289C21.7063 12.0977 22.7454 14.4101 24.761 15.1601C31.2102 17.5585 35.546 23.7967 35.546 30.68C35.546 39.8519 28.128 47.2459 18.98 47.2459C9.21442 47.2459 1.8429 38.6327 2.4679 29.004Z" fill="#989F42"/>
</svg>
