<svg width="24" height="25" viewBox="0 0 24 25" fill="none" xmlns="http://www.w3.org/2000/svg">
<path d="M21 11.6834V8.78029C21 7.14029 21 6.32029 20.5959 5.78529C20.1918 5.2503 19.2781 4.99056 17.4507 4.4711C16.2022 4.1162 15.1016 3.68863 14.2223 3.29829C13.0234 2.7661 12.424 2.5 12 2.5C11.576 2.5 10.9766 2.7661 9.77771 3.29829C8.89839 3.68863 7.79784 4.1162 6.54933 4.4711C4.72193 4.99056 3.80822 5.2503 3.40411 5.78529C3 6.32029 3 7.14029 3 8.78029V11.6834C3 17.3085 8.06277 20.6835 10.594 22.0194C11.2011 22.3398 11.5046 22.5 12 22.5C12.4954 22.5 12.7989 22.3398 13.406 22.0194C15.9372 20.6835 21 17.3085 21 11.6834Z" stroke="#3A66F5" stroke-width="1.5" stroke-linecap="round"/>
<path d="M12 7.5V9.5" stroke="#3A66F5" stroke-width="1.5" stroke-linecap="round"/>
</svg>
