<svg width="110" height="111" viewBox="0 0 110 111" fill="none" xmlns="http://www.w3.org/2000/svg">
<rect x="0.777344" y="0.549927" width="82.6867" height="109.9" rx="8.37334" fill="url(#paint0_linear_2376_13762)"/>
<rect x="19.0938" y="74.8634" width="30.3533" height="4.18667" rx="1.04667" fill="#B6CC5E"/>
<rect x="51.541" y="74.8634" width="13.6067" height="4.18667" fill="#B6CC5E"/>
<rect x="19.0938" y="83.2367" width="46.0534" height="4.18667" rx="1.04667" fill="#B6CC5E"/>
<rect x="19.0938" y="91.6101" width="46.0534" height="4.18667" rx="1.04667" fill="#B6CC5E"/>
<rect x="16.7461" y="21.8267" width="55" height="43" rx="8" fill="#C9D377"/>
<path d="M37.2461 47.16L40.9708 43.4352C41.2538 43.1523 41.6376 42.9933 42.0378 42.9933C42.4379 42.9933 42.8217 43.1523 43.1047 43.4352L46.4128 46.7433M46.4128 46.7433L47.6628 47.9933M46.4128 46.7433L48.0542 45.1019C48.3371 44.819 48.7209 44.66 49.1211 44.66C49.5213 44.66 49.9051 44.819 50.188 45.1019L52.2461 47.16" stroke="#7C843D" stroke-width="1.5" stroke-linecap="round" stroke-linejoin="round"/>
<path d="M47.6628 40.4934C47.8928 40.4934 48.0794 40.3068 48.0794 40.0767C48.0794 39.8466 47.8928 39.66 47.6628 39.66M47.6628 40.4934C47.4327 40.4934 47.2461 40.3068 47.2461 40.0767C47.2461 39.8466 47.4327 39.66 47.6628 39.66M47.6628 40.4934V39.66" stroke="#7C843D" stroke-width="1.5" stroke-linecap="round" stroke-linejoin="round"/>
<path d="M37.8284 50.2827C36.8301 49.1139 36.8301 47.3515 36.8301 43.8267C36.8301 40.3019 36.8301 38.5395 37.8284 37.3707C37.9701 37.2047 38.1247 37.0501 38.2907 36.9083C39.4596 35.91 41.222 35.91 44.7467 35.91C48.2715 35.91 50.0339 35.91 51.2027 36.9083C51.3687 37.0501 51.5233 37.2047 51.6651 37.3707C52.6634 38.5395 52.6634 40.3019 52.6634 43.8267C52.6634 47.3515 52.6634 49.1139 51.6651 50.2827C51.5233 50.4487 51.3687 50.6033 51.2027 50.745C50.0339 51.7434 48.2715 51.7434 44.7467 51.7434C41.222 51.7434 39.4596 51.7434 38.2907 50.745C38.1247 50.6033 37.9701 50.4487 37.8284 50.2827Z" stroke="#7C843D" stroke-width="1.5" stroke-linecap="round" stroke-linejoin="round"/>
<g clip-path="url(#clip0_2376_13762)">
<rect x="18.0449" y="53.4028" width="38.4934" height="5.30943" rx="1.32736" fill="#E9EBED"/>
</g>
<rect x="51.9569" y="53.2599" width="33.4933" height="33.4933" rx="16.7467" stroke="#B6CC5E" stroke-width="1.04667"/>
<path d="M86.7511 93.6203L92.0289 88.155C92.5883 87.5756 93.5118 87.5588 94.0912 88.1183L106.713 100.307C107.948 101.5 107.982 103.468 106.789 104.703L103.805 107.793C102.612 109.029 100.644 109.063 99.4086 107.87L86.7871 95.6819C86.2077 95.1224 86.1916 94.1996 86.7511 93.6203Z" fill="#F1F3DE" stroke="#7C843D" stroke-width="0.385957"/>
<mask id="path-14-inside-1_2376_13762" fill="white">
<path d="M80.3652 87.4517L85.7178 81.9089L92.026 88.0006L86.6734 93.5434L80.3652 87.4517Z"/>
</mask>
<path d="M80.3652 87.4517L85.7178 81.9089L92.026 88.0006L86.6734 93.5434L80.3652 87.4517Z" fill="#989F42"/>
<path d="M85.7178 81.9089L85.4497 82.1865L91.7579 88.2783L92.026 88.0006L92.2942 87.723L85.986 81.6313L85.7178 81.9089ZM86.6734 93.5434L86.9415 93.2658L80.6333 87.174L80.3652 87.4517L80.0971 87.7293L86.4053 93.821L86.6734 93.5434Z" fill="#7C843D" mask="url(#path-14-inside-1_2376_13762)"/>
<mask id="path-16-inside-2_2376_13762" fill="white">
<path d="M90.5919 70.2227C90.5919 82.1922 80.8886 91.8955 68.919 91.8955C56.9494 91.8955 47.2461 82.1922 47.2461 70.2227C47.2461 58.2532 56.9494 48.5499 68.919 48.5499C80.8886 48.5499 90.5919 58.2532 90.5919 70.2227ZM52.0955 70.2227C52.0955 79.514 59.6276 87.0461 68.919 87.0461C78.2103 87.0461 85.7424 79.514 85.7424 70.2227C85.7424 60.9314 78.2103 53.3993 68.919 53.3993C59.6276 53.3993 52.0955 60.9314 52.0955 70.2227Z"/>
</mask>
<path d="M90.5919 70.2227C90.5919 82.1922 80.8886 91.8955 68.919 91.8955C56.9494 91.8955 47.2461 82.1922 47.2461 70.2227C47.2461 58.2532 56.9494 48.5499 68.919 48.5499C80.8886 48.5499 90.5919 58.2532 90.5919 70.2227ZM52.0955 70.2227C52.0955 79.514 59.6276 87.0461 68.919 87.0461C78.2103 87.0461 85.7424 79.514 85.7424 70.2227C85.7424 60.9314 78.2103 53.3993 68.919 53.3993C59.6276 53.3993 52.0955 60.9314 52.0955 70.2227Z" fill="#F1F3DE" stroke="#7C843D" stroke-width="0.771914" mask="url(#path-16-inside-2_2376_13762)"/>
<defs>
<linearGradient id="paint0_linear_2376_13762" x1="42.1207" y1="0.549927" x2="42.1207" y2="110.45" gradientUnits="userSpaceOnUse">
<stop stop-color="#CCECE9"/>
<stop offset="1" stop-color="#E4E9CF"/>
</linearGradient>
<clipPath id="clip0_2376_13762">
<rect x="51.4336" y="52.7366" width="34.54" height="34.54" rx="17.27" fill="white"/>
</clipPath>
</defs>
</svg>
